
<svg width="20px" height="20px" viewBox="0 0 20 20" version="1.1" xmlns="http://www.w3.org/2000/svg" xmlns:xlink="http://www.w3.org/1999/xlink">
    <g id="Page-1" stroke="none" stroke-width="1" fill="none" fill-rule="evenodd">
        <g id="Mobile" transform="translate(-285.000000, -25.000000)" fill="#343434" fill-rule="nonzero">
            <g id="github-logo" transform="translate(285.000000, 25.000000)">
                <path d="M18.6585672,5.35007562 C17.7643394,3.85803162 16.5513766,2.67677832 15.0193594,1.80604922 C13.4871142,0.935275723 11.8143593,0.5 9.99990879,0.5 C8.18568634,0.5 6.51238411,0.935408957 4.98045815,1.80604922 C3.44830417,2.6767339 2.23538694,3.85803162 1.34115919,5.35007562 C0.447068266,6.8420752 0,8.47135029 0,10.2378565 C0,12.3598312 0.635737186,14.2679652 1.90753079,15.962747 C3.17918759,17.6576621 4.82197991,18.8304773 6.83577093,19.4813257 C7.07018192,19.5236941 7.2437099,19.4938941 7.35653728,19.3926806 C7.46941028,19.2913339 7.52577837,19.1644063 7.52577837,19.0124306 C7.52577837,18.9870717 7.52354371,18.7589306 7.51921121,18.3277407 C7.5147419,17.8965508 7.51264406,17.5203866 7.51264406,17.1994257 L7.21315438,17.249877 C7.0222052,17.2839405 6.78131827,17.2983742 6.49049359,17.2942884 C6.19980572,17.2903358 5.89803578,17.260669 5.58559421,17.2055101 C5.27301583,17.1508397 4.98228236,17.0240453 4.71316578,16.8253933 C4.44418601,16.6267412 4.25323683,16.3667127 4.14036384,16.0457074 L4.01016085,15.7539248 C3.92337406,15.5596695 3.78674073,15.3438748 3.60007844,15.1073399 C3.41341615,14.8705829 3.22465602,14.7100803 3.03370684,14.6255654 L2.94254195,14.5620128 C2.88179575,14.5197776 2.82542766,14.4688378 2.77330086,14.4097262 C2.72121967,14.3506147 2.68222718,14.2914588 2.65618658,14.232214 C2.63010038,14.1729249 2.65171727,14.1242944 2.72126527,14.0861451 C2.79081328,14.0479957 2.91650135,14.0294762 3.09887674,14.0294762 L3.35919151,14.0673591 C3.5328107,14.1012449 3.74756582,14.2024584 4.00373051,14.3716213 C4.25975838,14.5406509 4.47022661,14.7603983 4.6351808,15.0307747 C4.8349318,15.3774497 5.0755907,15.6416085 5.35784159,15.8233842 C5.63986446,16.0051599 5.9242132,16.0958923 6.21061417,16.0958923 C6.49701514,16.0958923 6.74437801,16.0747525 6.95279401,16.0326949 C7.16098197,15.9904153 7.35630926,15.9268627 7.53868465,15.8423922 C7.61680645,15.2757921 7.82950933,14.8405164 8.17661089,14.5362542 C7.68188514,14.4856253 7.23709713,14.4093709 6.84201885,14.3079798 C6.4471686,14.2064555 6.03913843,14.0416893 5.61820197,13.8132373 C5.19703748,13.5850961 4.84765566,13.3017961 4.56996529,12.9638256 C4.29222932,12.6256776 4.06429428,12.1817416 3.88647941,11.6324175 C3.70857333,11.0828714 3.61959749,10.4489437 3.61959749,9.73045671 C3.61959749,8.70744107 3.96254897,7.83688962 4.64831511,7.11831385 C4.32707173,6.34919794 4.35739922,5.48699583 4.7393888,4.53179634 C4.99112978,4.45563086 5.36445436,4.51278828 5.85918011,4.7029133 C6.35399707,4.89312715 6.71628518,5.05607242 6.94640927,5.19117178 C7.17653336,5.32622672 7.36091539,5.44067479 7.49982898,5.53349453 C8.30726993,5.31379154 9.14052346,5.20391784 9.99981758,5.20391784 C10.8591117,5.20391784 11.6925476,5.31379154 12.5000342,5.53349453 L12.9948056,5.22932113 C13.3331509,5.02636123 13.7326985,4.84036646 14.1924906,4.67129242 C14.6525564,4.5023072 15.0043553,4.45576409 15.2475225,4.53192957 C15.6379946,5.48717348 15.6727915,6.34933118 15.3514569,7.11844708 C16.0371774,7.83702286 16.3802657,8.70779636 16.3802657,9.73058994 C16.3802657,10.4490769 16.2909706,11.0850031 16.1133382,11.6387684 C15.9354777,12.1926224 15.7055816,12.6361142 15.4235588,12.9701765 C15.1412167,13.3041943 14.7896002,13.5852738 14.3686637,13.8133705 C13.9476361,14.0416449 13.5394691,14.206411 13.1446188,14.3079354 C12.7495861,14.4094598 12.3047981,14.4857585 11.8100724,14.5364763 C12.2612907,14.9167263 12.4869455,15.5169458 12.4869455,16.3368683 L12.4869455,19.0120753 C12.4869455,19.164051 12.5412157,19.2909342 12.6498475,19.3923253 C12.7583423,19.4935388 12.9296813,19.5233389 13.1640923,19.480926 C15.1781569,18.8301664 16.8209492,17.6573068 18.0925604,15.9623917 C19.3640348,14.2676099 20,12.3594759 20,10.2375012 C19.9995439,8.47121705 19.5522477,6.8420752 18.6585672,5.35007562 Z" id="Path"></path>
            </g>
        </g>
    </g>
</svg>